<?xml version="1.0" encoding="UTF-8"?>
<svg version="1.1" xmlns="http://www.w3.org/2000/svg" width="1024" height="1024">
<path d="M0 0 C337.92 0 675.84 0 1024 0 C1024 337.92 1024 675.84 1024 1024 C686.08 1024 348.16 1024 0 1024 C0 686.08 0 348.16 0 0 Z " fill="#FAF7F4" transform="translate(0,0)"/>
<path d="M0 0 C18.68320402 6.45543288 37.11104419 13.25785551 55.33227539 20.93774414 C67.1190899 25.63111194 74.11747288 24.0861489 85.6875 19.25 C87.52356152 18.50642407 89.35962883 17.76286218 91.19596863 17.01997375 C93.12936731 16.23480195 95.05967403 15.44244657 96.98925781 14.64794922 C103.16644027 12.10584338 109.3622653 9.61010767 115.56045532 7.11975098 C117.53892993 6.32200376 119.51412588 5.51654001 121.48901367 4.70996094 C122.69017822 4.22430664 123.89134277 3.73865234 125.12890625 3.23828125 C126.19181885 2.80555908 127.25473145 2.37283691 128.34985352 1.92700195 C131 1 131 1 134 1 C134.33 12.22 134.66 23.44 135 35 C137.97 35.99 137.97 35.99 141 37 C162.5534457 48.84468638 192.12793018 74.98962341 200.08984375 98.60546875 C203.2764628 110.49032692 203.21806124 123.26356248 197.79296875 134.5 C194.6750834 139.7749722 194.6750834 139.7749722 191 141 C186.29333458 136.34389581 181.59441048 131.68008529 176.90087891 127.01074219 C175.30208228 125.42202543 173.70149831 123.83510531 172.09912109 122.25 C169.80097749 119.97601746 167.50926378 117.69572688 165.21875 115.4140625 C164.49691528 114.70255035 163.77508057 113.99103821 163.03137207 113.25796509 C162.37068726 112.59743134 161.71000244 111.93689758 161.02929688 111.25634766 C160.44305542 110.67454742 159.85681396 110.09274719 159.25280762 109.49331665 C158 108 158 108 158 106 C157.4423999 105.77127197 156.8847998 105.54254395 156.31030273 105.30688477 C153.35482398 103.63503886 151.38699088 101.53995611 149.03515625 99.08984375 C148.0595536 98.08889162 147.08363087 97.0882514 146.10742188 96.08789062 C144.59645175 94.52795275 143.08887381 92.96507004 141.58764648 91.39575195 C126.79769916 75.97959249 110.00654385 65.65699304 89 61 C88.24050049 60.8256543 87.48100098 60.65130859 86.69848633 60.47167969 C66.22929687 56.89378463 43.44389072 59.33693353 26 71 C3.16285892 87.04697171 -11.3058192 108.59098972 -16.25 136.3125 C-18.67152832 154.67208741 -16.31837295 172.34089289 -8 189 C-7.45859375 190.09441406 -6.9171875 191.18882812 -6.359375 192.31640625 C5.37653507 214.38287582 24.58957302 230.41424706 48.4375 237.9375 C69.44101342 244.29240919 94.22499401 242.40207003 114 233 C122.57049878 228.37978502 129.9988418 222.33142336 136.65625 215.234375 C138 214 138 214 140 214 C140 213.34 140 212.68 140 212 C141.43359375 210.58984375 141.43359375 210.58984375 143.4375 208.9375 C149.06591566 204.15184177 154.88424507 199.1736324 159 193 C159.66 193 160.32 193 161 193 C161.33 192.01 161.66 191.02 162 190 C162.66 190 163.32 190 164 190 C164 189.34 164 188.68 164 188 C164.66 188 165.32 188 166 188 C166.26924286 187.40445816 166.53848572 186.80891632 166.81588745 186.19532776 C168.00128028 183.99762638 169.16638883 182.60819558 170.94580078 180.87475586 C171.83780685 179.99750099 171.83780685 179.99750099 172.74783325 179.1025238 C173.3905014 178.47958939 174.03316956 177.85665497 174.6953125 177.21484375 C176.06523588 175.86536807 177.43502304 174.5157541 178.8046875 173.16601562 C180.95437336 171.05950889 183.10647541 168.95555682 185.26171875 166.85473633 C202.66645578 149.85817416 209.48227157 138.35207613 212.4609375 113.90429688 C212.61820312 112.70224609 212.77546875 111.50019531 212.9375 110.26171875 C213.07027344 109.17850342 213.20304687 108.09528809 213.33984375 106.97924805 C214.61053798 101.2446764 218.20139793 97.43499402 222.125 93.25 C222.61000977 92.72631836 223.09501953 92.20263672 223.59472656 91.66308594 C227.28214673 87.70520666 231.09305439 83.8833592 234.9453125 80.0859375 C237.53157245 77.4603428 239.92191257 74.69472866 242.3203125 71.8984375 C244.49258518 69.44326419 246.81755325 67.16917583 249.15722656 64.875 C250.93548741 63.06564079 252.59230376 61.19986006 254.2421875 59.2734375 C276.09420469 34.16612773 303.23341189 14.67318835 336 7 C336.99241699 6.75660889 336.99241699 6.75660889 338.00488281 6.50830078 C358.07102178 1.7681524 381.03811854 1.89634371 401 7 C401.67708008 7.16628906 402.35416016 7.33257812 403.05175781 7.50390625 C427.61556804 13.63634154 447.56482138 25.82110138 466 43 C467.11181641 44.01320313 467.11181641 44.01320313 468.24609375 45.046875 C491.10521779 66.72433309 507.08097562 100.93858593 508.11157227 132.40673828 C508.16029755 135.65635625 508.18569406 138.90456759 508.18530273 142.15454102 C508.18747719 144.16639776 508.20566069 146.17769366 508.22460938 148.18945312 C508.2437441 161.18193305 506.76160899 173.24756311 502.5625 185.5625 C502.21832031 186.58045654 501.87414062 187.59841309 501.51953125 188.6472168 C494.25145834 209.2822099 483.01175402 226.25279981 468 242 C467.27039063 242.7940625 466.54078125 243.588125 465.7890625 244.40625 C461.56516172 248.86568428 457.00704512 252.78786728 452.125 256.5 C451.58447998 256.93393066 451.04395996 257.36786133 450.48706055 257.81494141 C445.35414086 261.5606871 440.23240944 261.82495611 434 262 C431.85748164 276.96092591 431.85748164 276.96092591 435.23046875 291.09912109 C438.55864134 294.39955892 442.65809853 296.20963288 446.92285156 298.03710938 C449.58114433 299.26939742 451.83111212 300.85109633 454.20043945 302.56079102 C468.44266949 312.82360386 484.68044744 320.76007035 500.66015625 327.92578125 C501.294375 328.23725098 501.92859375 328.5487207 502.58203125 328.86962891 C504.54778174 329.78859344 506.56373153 330.5995864 508.58984375 331.37646484 C515.49455223 334.24897572 520.25078105 336.98802875 523.23738098 344.08076477 C524.63640332 348.00791604 525.77578599 351.98047416 526.875 356 C527.37121465 357.63176408 527.87249072 359.26199788 528.37890625 360.890625 C530.50099115 367.87414098 532.51699241 374.6844682 533 382 C531 384 531 384 528.12988281 384.21069336 C526.91655273 384.19143799 525.70322266 384.17218262 524.453125 384.15234375 C523.78992249 384.14331528 523.12671997 384.1342868 522.44342041 384.12498474 C521.02331624 384.10346895 519.60328003 384.077007 518.18334961 384.04608154 C516.04213263 384.00088925 513.90131276 383.97374228 511.75976562 383.94970703 C508.15246511 383.90036627 504.55089312 383.78599254 500.94628906 383.63989258 C499.47542005 383.58806227 498.00388222 383.55272589 496.53222656 383.53344727 C485.4493852 383.37564522 478.9463164 381.17553707 471 373 C470.18208984 372.22760986 469.36417969 371.45521973 468.52148438 370.65942383 C466.09220326 368.35749977 463.72734249 366.00533787 461.375 363.625 C460.54814697 362.79210449 459.72129395 361.95920898 458.86938477 361.10107422 C453.18314985 355.32199133 447.90481032 349.46142676 443 343 C442.22011719 342.02546875 441.44023438 341.0509375 440.63671875 340.046875 C432.36631814 329.66715772 424.38886551 318.73029956 419.09887695 306.51464844 C415.47060996 298.24534878 411.70289758 294.50885427 403.53515625 290.69140625 C399.20298504 288.61866577 395.52880557 285.92672572 391.6953125 283.0546875 C388.39590816 281.76361624 386.54229791 282.4251426 383.22705078 283.42724609 C357.65082879 290.00495019 325.96259322 278.57603325 304.11132812 265.90478516 C286.98331213 255.65969411 272.75754362 242.05059958 259.75927734 227.00219727 C256.1407536 222.88403001 252.31344976 218.95419385 248.51757812 215 C236.46207575 202.2864733 234.37707204 193.67628514 234.68359375 176.31640625 C234.93481948 170.28803982 236.09424656 165.31149086 239 160 C239.39703125 159.22269531 239.7940625 158.44539062 240.203125 157.64453125 C242.62789181 153.30910958 244.17243347 151.61993468 249 150 C264.25317467 166.15915964 264.25317467 166.15915964 271.0625 173.5625 C276.10159358 179.0408595 281.18355852 184.47783059 286.2800293 189.90283203 C290.05892669 193.92598172 293.82466974 197.96081458 297.57958984 202.00634766 C300.37592601 205.01410114 303.18583771 208.00893196 306 211 C306.83273437 211.88816406 307.66546875 212.77632812 308.5234375 213.69140625 C322.32775791 228.00430689 341.8064267 238.03718324 361.87744141 239.16113281 C365.12673023 239.20701015 368.37541494 239.23524592 371.625 239.25 C372.73746094 239.270625 373.84992188 239.29125 374.99609375 239.3125 C396.27288679 239.41157703 417.33041184 229.87669346 432.66796875 215.33203125 C433.43753906 214.56246094 434.20710938 213.79289063 435 213 C435.75925781 212.24074219 436.51851562 211.48148438 437.30078125 210.69921875 C455.89020978 191.08239521 463.57198891 166.6045694 463.21484375 139.890625 C462.45094046 115.54061463 451.17249711 93.68202523 434 77 C432.85724609 75.86111328 432.85724609 75.86111328 431.69140625 74.69921875 C413.87807074 57.86643382 389.35947385 50.56935546 365.26171875 50.78515625 C333.75177012 51.97351458 310.69338501 65.91861602 289.015625 87.75390625 C287.90505048 88.86567744 286.794101 89.97707419 285.68280029 91.08811951 C283.37379264 93.39867713 281.06813756 95.71250819 278.76513672 98.02905273 C275.8331596 100.97806733 272.89459395 103.9204074 269.95370865 106.86053562 C267.66613799 109.14837981 265.38119452 111.43883291 263.0970993 113.73014641 C262.01495452 114.81544127 260.93223131 115.90015976 259.84888458 116.98425484 C241.76575408 134.56987514 241.76575408 134.56987514 229 156 C228.66613281 156.75023437 228.33226562 157.50046875 227.98828125 158.2734375 C225.89974148 163.56854578 224.90606617 168.28312607 224.46875 173.9453125 C222.94131947 193.54855803 222.94131947 193.54855803 216.75 199.5625 C214.85705589 201.07190642 212.94244061 202.55484616 211 204 C209.81253735 205.2749599 208.66179109 206.5857791 207.5625 207.9375 C204.103562 211.99654291 200.34164971 215.71728898 196.52563477 219.43725586 C193.83212521 222.08402338 191.28378257 224.79378594 188.82421875 227.66015625 C184.52704332 232.62224442 179.9348194 237.28721202 175.30444336 241.93579102 C173.82517273 243.42474432 172.35697547 244.92406966 170.88867188 246.42382812 C145.77256651 271.82080165 113.27695579 286.08757967 77.51153564 286.30587769 C38.81793243 286.42240204 6.78398939 273.29750548 -21.33203125 246.69921875 C-48.30015497 219.41521657 -61.31443269 182.91131427 -61.24438477 144.95751953 C-60.88184195 115.11527001 -49.47091164 85.61547976 -30 63 C-28.89205078 61.68515625 -28.89205078 61.68515625 -27.76171875 60.34375 C-14.57781831 45.16938501 -14.57781831 45.16938501 -7.44726562 41.7902832 C-4.26834972 40.1307021 -2.27695944 38.79295236 0 36 C1.67867704 30.07675672 0.93569339 23.63391778 0.625 17.5625 C0.57479293 15.8601564 0.52917357 14.15767094 0.48828125 12.45507812 C0.37852369 8.29986366 0.20628946 4.15149611 0 0 Z " fill="#F3961D" transform="translate(296,272)"/>
<path d="M0 0 C18.68320402 6.45543288 37.11104419 13.25785551 55.33227539 20.93774414 C67.1190899 25.63111194 74.11747288 24.0861489 85.6875 19.25 C87.52356152 18.50642407 89.35962883 17.76286218 91.19596863 17.01997375 C93.12936731 16.23480195 95.05967403 15.44244657 96.98925781 14.64794922 C103.16644027 12.10584338 109.3622653 9.61010767 115.56045532 7.11975098 C117.53892993 6.32200376 119.51412588 5.51654001 121.48901367 4.70996094 C122.69017822 4.22430664 123.89134277 3.73865234 125.12890625 3.23828125 C126.19181885 2.80555908 127.25473145 2.37283691 128.34985352 1.92700195 C131 1 131 1 134 1 C134.33 12.22 134.66 23.44 135 35 C137.97 35.99 137.97 35.99 141 37 C162.5534457 48.84468638 192.12793018 74.98962341 200.08984375 98.60546875 C203.2764628 110.49032692 203.21806124 123.26356248 197.79296875 134.5 C194.6750834 139.7749722 194.6750834 139.7749722 191 141 C186.29333458 136.34389581 181.59441048 131.68008529 176.90087891 127.01074219 C175.30208228 125.42202543 173.70149831 123.83510531 172.09912109 122.25 C169.80097749 119.97601746 167.50926378 117.69572688 165.21875 115.4140625 C164.49691528 114.70255035 163.77508057 113.99103821 163.03137207 113.25796509 C162.37068726 112.59743134 161.71000244 111.93689758 161.02929688 111.25634766 C160.44305542 110.67454742 159.85681396 110.09274719 159.25280762 109.49331665 C158 108 158 108 158 106 C157.4423999 105.77127197 156.8847998 105.54254395 156.31030273 105.30688477 C153.35482398 103.63503886 151.38699088 101.53995611 149.03515625 99.08984375 C148.0595536 98.08889162 147.08363087 97.0882514 146.10742188 96.08789062 C144.59645175 94.52795275 143.08887381 92.96507004 141.58764648 91.39575195 C126.79769916 75.97959249 110.00654385 65.65699304 89 61 C88.24050049 60.8256543 87.48100098 60.65130859 86.69848633 60.47167969 C66.22929687 56.89378463 43.44389072 59.33693353 26 71 C3.16285892 87.04697171 -11.3058192 108.59098972 -16.25 136.3125 C-18.67152832 154.67208741 -16.31837295 172.34089289 -8 189 C-7.45859375 190.09441406 -6.9171875 191.18882812 -6.359375 192.31640625 C5.37653507 214.38287582 24.58957302 230.41424706 48.4375 237.9375 C69.44101342 244.29240919 94.22499401 242.40207003 114 233 C122.57049878 228.37978502 129.9988418 222.33142336 136.65625 215.234375 C138 214 138 214 140 214 C140 213.34 140 212.68 140 212 C141.43359375 210.58984375 141.43359375 210.58984375 143.4375 208.9375 C149.06591566 204.15184177 154.88424507 199.1736324 159 193 C159.66 193 160.32 193 161 193 C161.33 192.01 161.66 191.02 162 190 C162.66 190 163.32 190 164 190 C164 189.34 164 188.68 164 188 C164.66 188 165.32 188 166 188 C166.26924286 187.40445816 166.53848572 186.80891632 166.81588745 186.19532776 C168.00128028 183.99762638 169.16638883 182.60819558 170.94580078 180.87475586 C171.83780685 179.99750099 171.83780685 179.99750099 172.74783325 179.1025238 C173.3905014 178.47958939 174.03316956 177.85665497 174.6953125 177.21484375 C176.06523588 175.86536807 177.43502304 174.5157541 178.8046875 173.16601562 C180.95437336 171.05950889 183.10647541 168.95555682 185.26171875 166.85473633 C198.15387696 154.26492425 208.97125202 143.66448137 211 125 C211.33 125 211.66 125 212 125 C211.91685547 126.17175781 211.91685547 126.17175781 211.83203125 127.3671875 C211.77145001 138.24757883 215.44673202 146.71840666 220.13793945 156.45849609 C223.63511596 163.98655935 224.62870256 169.74911991 224 178 C223.98032069 179.35543159 223.96299881 180.71090185 223.94921875 182.06640625 C223.26819104 191.16371674 220.4777148 195.81062772 213.796875 201.59375 C212.41242188 202.78484375 212.41242188 202.78484375 211 204 C209.82358427 205.28516004 208.67355587 206.59543251 207.5625 207.9375 C204.103562 211.99654291 200.34164971 215.71728898 196.52563477 219.43725586 C193.83212521 222.08402338 191.28378257 224.79378594 188.82421875 227.66015625 C184.52704332 232.62224442 179.9348194 237.28721202 175.30444336 241.93579102 C173.82517273 243.42474432 172.35697547 244.92406966 170.88867188 246.42382812 C145.77256651 271.82080165 113.27695579 286.08757967 77.51153564 286.30587769 C38.81793243 286.42240204 6.78398939 273.29750548 -21.33203125 246.69921875 C-48.30015497 219.41521657 -61.31443269 182.91131427 -61.24438477 144.95751953 C-60.88184195 115.11527001 -49.47091164 85.61547976 -30 63 C-28.89205078 61.68515625 -28.89205078 61.68515625 -27.76171875 60.34375 C-14.57781831 45.16938501 -14.57781831 45.16938501 -7.44726562 41.7902832 C-4.26834972 40.1307021 -2.27695944 38.79295236 0 36 C1.67867704 30.07675672 0.93569339 23.63391778 0.625 17.5625 C0.57479293 15.8601564 0.52917357 14.15767094 0.48828125 12.45507812 C0.37852369 8.29986366 0.20628946 4.15149611 0 0 Z " fill="#017461" transform="translate(296,272)"/>
<path d="M0 0 C1.7164121 0.85043301 3.4325945 1.70143194 5.14163208 2.56658936 C8.35053623 4.18871744 11.58078004 5.76749233 14.80859375 7.3515625 C15.48324173 7.68372772 16.15788971 8.01589294 16.85298157 8.35812378 C24.20195448 11.96470582 31.63923362 15.3691164 39.09765625 18.7421875 C39.77162445 19.04746368 40.44559265 19.35273987 41.13998413 19.66726685 C53.98689951 25.48215834 66.87296874 31.21031537 79.76977539 36.91357422 C104.54134116 47.87337241 104.54134116 47.87337241 106.03515625 49.3671875 C106.59765625 51.6171875 106.59765625 51.6171875 106.03515625 54.3671875 C101.07059531 58.46118924 94.9209028 60.8755536 89 63.23046875 C88.14033127 63.57958313 87.28066254 63.92869751 86.39494324 64.28839111 C83.59024119 65.42569998 80.78149421 66.55263688 77.97265625 67.6796875 C76.00667352 68.47502675 74.04102023 69.27118078 72.07568359 70.06811523 C68.04333135 71.70263472 64.00966997 73.33385933 59.97509766 74.96289062 C51.84530578 78.24908953 43.73490029 81.58219644 35.62509155 84.91732788 C33.17925506 85.92184353 30.73207903 86.92302066 28.28442383 87.9230957 C21.51425631 90.69099625 14.75374459 93.47164966 8.03515625 96.36328125 C7.02050293 96.79503662 6.00584961 97.22679199 4.96044922 97.67163086 C3.18797679 98.42836996 1.42059251 99.19723895 -0.33935547 99.98266602 C-8.53626786 103.4612752 -14.22632903 103.22795429 -22.56640625 100.04296875 C-24.53938479 99.23800068 -26.50351123 98.41498022 -28.46466064 97.581604 C-32.24177028 95.97861859 -36.04195313 94.43185839 -39.83984375 92.87890625 C-40.68141022 92.53347778 -41.52297668 92.18804932 -42.39004517 91.83215332 C-54.41356966 86.92131148 -66.56411662 82.33237817 -78.70128632 77.71169662 C-80.59385694 76.99065854 -82.48589231 76.26823397 -84.37774658 75.5453186 C-87.93986952 74.18444939 -91.50292147 72.82604866 -95.06640625 71.46875 C-96.15332764 71.05377762 -97.24024902 70.63880524 -98.36010742 70.21125793 C-99.34938232 69.83555161 -100.33865723 69.45984528 -101.35791016 69.07275391 C-102.66183212 68.57650009 -102.66183212 68.57650009 -103.99209595 68.07022095 C-105.77279308 67.31123868 -105.77279308 67.31123868 -106.96484375 67.3671875 C-106.94059415 75.32105581 -106.5964326 80.53305742 -101.27734375 86.59375 C-99.96484375 88.3671875 -99.96484375 88.3671875 -99.40234375 92.1171875 C-99.96484375 95.3671875 -99.96484375 95.3671875 -101.5390625 97.25 C-103.19931775 99.2799103 -103.19931775 99.2799103 -102.92578125 101.8125 C-102.73242188 102.69679688 -102.5390625 103.58109375 -102.33984375 104.4921875 C-102.13488281 105.45640625 -101.92992187 106.420625 -101.71875 107.4140625 C-100.79581847 111.02927616 -99.69447759 114.55997881 -98.453125 118.078125 C-97.87288297 120.79829966 -98.35971333 122.67877099 -98.96484375 125.3671875 C-102.94399534 125.39605734 -106.92312028 125.41394156 -110.90234375 125.4296875 C-112.03865234 125.43806641 -113.17496094 125.44644531 -114.34570312 125.45507812 C-115.42529297 125.45830078 -116.50488281 125.46152344 -117.6171875 125.46484375 C-119.1175354 125.47269897 -119.1175354 125.47269897 -120.64819336 125.48071289 C-122.96484375 125.3671875 -122.96484375 125.3671875 -123.96484375 124.3671875 C-123.63375889 119.23537222 -122.8281445 114.61931001 -121.40234375 109.6796875 C-120.29288545 105.79114494 -119.45538372 102.44286771 -119.96484375 98.3671875 C-120.62484375 97.3771875 -121.28484375 96.3871875 -121.96484375 95.3671875 C-122.40234375 92.5546875 -122.40234375 92.5546875 -121.96484375 89.3671875 C-120.73342405 87.90892733 -119.49707818 86.45353634 -118.20703125 85.046875 C-113.987846 79.3416874 -114.44730541 70.15973975 -113.96484375 63.3671875 C-114.70089844 63.24472656 -115.43695313 63.12226563 -116.1953125 62.99609375 C-118.85753813 62.3915545 -120.8722049 61.56840452 -123.27734375 60.3046875 C-123.97472656 59.94246094 -124.67210937 59.58023438 -125.390625 59.20703125 C-125.91011719 58.92988281 -126.42960938 58.65273437 -126.96484375 58.3671875 C-126.91015625 55.609375 -126.91015625 55.609375 -125.96484375 52.3671875 C-123.53295248 50.73973863 -121.48775879 49.63360933 -118.83984375 48.4921875 C-117.3609766 47.80684677 -115.88313191 47.11929594 -114.40625 46.4296875 C-113.65746582 46.08679688 -112.90868164 45.74390625 -112.13720703 45.390625 C-108.94471072 43.88658538 -105.86782515 42.19336208 -102.77734375 40.4921875 C-95.88805846 36.75345605 -88.82600324 33.41867193 -81.73486328 30.08300781 C-75.84187204 27.2976194 -70.06430285 24.36403496 -64.33569336 21.25683594 C-58.10145644 17.87893618 -51.76095388 14.73074139 -45.40820312 11.58300781 C-42.53235501 10.15198028 -39.66255737 8.70916272 -36.79296875 7.265625 C-35.71716553 6.72518555 -34.6413623 6.18474609 -33.53295898 5.62792969 C-31.39636692 4.55442637 -29.26043896 3.47960006 -27.12524414 2.40332031 C-26.14031982 1.90928711 -25.15539551 1.41525391 -24.140625 0.90625 C-23.26317627 0.46490723 -22.38572754 0.02356445 -21.48168945 -0.43115234 C-13.19182579 -4.38912198 -8.24579214 -3.8681428 0 0 Z " fill="#007462" transform="translate(375.96484375,186.6328125)"/>
<path d="M0 0 C7.59 0 15.18 0 23 0 C23.33 14.52 23.66 29.04 24 44 C26.64 42.02 29.28 40.04 32 38 C41.35259212 32.93062398 52.10503601 32.47803341 62.3125 35.125 C72.56780843 38.7286716 79.70131576 45.39404065 84.75 54.875 C90.7362821 67.77149199 91.14488696 83.65792706 86.3203125 97.03515625 C81.08656626 108.7878586 73.98601474 116.22817891 62.140625 121.2734375 C51.67087014 124.82704043 40.84993525 123.75569705 31 119 C28.46602607 117.56558083 26.07340134 116.07340134 24 114 C23.67 116.31 23.34 118.62 23 121 C15.41 121 7.82 121 0 121 C0 81.07 0 41.14 0 0 Z " fill="#037361" transform="translate(378,682)"/>
<path d="M0 0 C6.74515102 5.37504222 11.17055176 12.53393635 13 21 C10.58222111 21.97602959 8.1624544 22.94618142 5.73828125 23.90625 C4.06176919 24.57589818 2.39083761 25.26002112 0.73046875 25.96875 C-2.11568929 27.14421871 -4.66918656 27.97744454 -7.75 28.1875 C-10.92287961 26.51292465 -11.48435352 24.19669873 -12.91796875 21.00390625 C-15.2948962 16.60187093 -19.21385165 15.26204945 -23.75 13.75 C-31.05345806 12.21683132 -37.77210778 11.96759523 -44.3671875 15.8125 C-46.92688334 17.67409698 -47.99080973 18.97242918 -49 22 C-49.23434316 25.21635983 -49.20002392 27.99221472 -48 31 C-43.79929173 35.01130436 -39.87114656 37.13005645 -34.328125 38.90234375 C-33.60566589 39.14739151 -32.88320679 39.39243927 -32.13885498 39.64491272 C-29.84657768 40.4217414 -27.54922203 41.18149528 -25.25 41.9375 C-15.55745314 45.13163476 -6.47849458 48.14056939 2 54 C2.928125 54.61875 3.85625 55.2375 4.8125 55.875 C11.01618711 61.90143891 14.22178328 69.16816344 14.38061523 77.73901367 C14.3549732 89.20546153 13.0249588 96.55296332 4.97265625 105.15234375 C-7.70456871 117.02625941 -23.1288912 118.65966183 -39.71630859 118.13183594 C-52.92756277 117.3691593 -64.85787526 111.27355227 -73.86328125 101.74609375 C-77.14427566 97.52938612 -79.19285518 93.00293777 -81 88 C-78.68405587 85.3433795 -76.6532073 84.29694259 -73.33203125 83.17578125 C-72.43935547 82.86962891 -71.54667969 82.56347656 -70.62695312 82.24804688 C-69.69818359 81.93931641 -68.76941406 81.63058594 -67.8125 81.3125 C-66.87212891 80.99216797 -65.93175781 80.67183594 -64.96289062 80.34179688 C-62.64447175 79.55329908 -60.32360457 78.77305452 -58 78 C-57.47212891 78.99580078 -57.47212891 78.99580078 -56.93359375 80.01171875 C-53.06014628 86.93942505 -49.62055725 91.18638321 -42.18359375 94.10546875 C-35.80886365 95.89665058 -28.10464866 96.21123826 -21.875 93.6875 C-18.61382232 91.77333049 -16.68406887 90.36813774 -15 87 C-14.58358178 82.92390623 -14.62911118 79.16565057 -15.875 75.25 C-22.98594245 67.72076682 -35.35979148 65.46363451 -44.92382812 62.5703125 C-56.36239599 58.9410785 -67.34787222 53.70398101 -73.2109375 42.734375 C-77.34166401 33.88700332 -78.49303184 25.66006236 -75.25 16.3125 C-71.53228461 7.05037168 -65.83673868 -0.19560248 -56.69921875 -4.5859375 C-38.39741696 -11.75742495 -16.33295015 -12.02286608 0 0 Z " fill="#017360" transform="translate(694,368)"/>
<path d="M0 0 C11.12145525 -0.54650886 23.82105522 2.22643788 32.39453125 9.70703125 C32.94238281 10.22652344 33.49023438 10.74601563 34.0546875 11.28125 C34.95380859 12.01408203 34.95380859 12.01408203 35.87109375 12.76171875 C42.35402951 18.43253729 46.25624614 26.92162585 48.0546875 35.28125 C48.97352995 50.20867411 47.76335861 62.73341594 38.19140625 74.90625 C30.49471197 83.46125936 19.5722368 88.64114184 8.109375 89.6171875 C-7.02416902 89.94629487 -18.80024984 86.65349046 -30.1640625 76.25 C-39.69027284 66.43942517 -42.24438312 54.80927867 -42.09375 41.5234375 C-41.55467756 29.74896061 -36.66443629 20.13641823 -28.59765625 11.61328125 C-20.18486796 4.21647034 -10.91066089 1.04186682 0 0 Z " fill="#027260" transform="translate(314.9453125,715.71875)"/>
<path d="M0 0 C6.50600349 5.03727607 10.55375709 11.13203601 13 19 C13.125 21.83203125 13.125 21.83203125 13 24 C10.43850372 24.50567729 7.87600535 25.00470132 5.3125 25.5 C4.59126953 25.64308594 3.87003906 25.78617188 3.12695312 25.93359375 C-0.63841359 26.65571887 -4.14473813 27.1824976 -8 27 C-8.23074219 26.46890625 -8.46148438 25.9378125 -8.69921875 25.390625 C-11.22451936 19.92080391 -13.66257855 16.62186972 -19.2265625 13.91796875 C-22.57476331 12.80976144 -25.41359108 12.69897853 -28.9375 12.6875 C-30.12214844 12.67074219 -31.30679688 12.65398438 -32.52734375 12.63671875 C-37.44493289 13.15115721 -40.71588794 14.85105763 -44.375 18.125 C-46.5747944 22.01694393 -47.01850373 25.62642517 -46 30 C-43.18822141 34.58292344 -39.93584389 36.26354676 -35 37.9375 C-34.31010986 38.18564453 -33.62021973 38.43378906 -32.90942383 38.68945312 C-28.0846629 40.38809415 -23.2004567 41.83843238 -18.28588867 43.25195312 C-5.24473031 47.00635595 7.40063565 51.30251893 14.4375 63.8125 C17.64280177 71.98671936 17.39397915 82.21838852 14.96484375 90.55078125 C10.71776767 99.86122381 4.30689985 105.78991037 -5 109.875 C-6.98817076 110.61588672 -8.98769592 111.32741663 -11 112 C-11.71542969 112.24621094 -12.43085937 112.49242187 -13.16796875 112.74609375 C-24.59547023 115.951099 -37.90220904 114.72064668 -49 111 C-49.87140625 110.7215625 -50.7428125 110.443125 -51.640625 110.15625 C-63.53202652 105.92495375 -70.58242763 98.16271889 -76 87 C-69.14208017 82.69289182 -62.33963973 78.45394811 -55 75 C-54.6596875 75.65226563 -54.319375 76.30453125 -53.96875 76.9765625 C-49.99301691 84.14557057 -45.89186504 89.03512346 -38.1796875 92.1328125 C-31.24724438 94.02347881 -22.95200986 94.35509543 -16.3125 91.3125 C-13.11944123 89.34333314 -11.28573926 87.61614167 -10 84 C-9.46262828 79.78547037 -9.57171242 76.20455881 -11 72.1875 C-17.6358084 64.92958456 -29.48220616 63.48933146 -38.55859375 61.08789062 C-50.9663482 57.69483156 -62.26721944 53.627311 -68.96484375 42.01953125 C-72.8563799 34.42736449 -73.24093114 25.52135818 -71.3828125 17.25390625 C-68.39585862 8.7820592 -62.22242855 1.47667856 -54.375 -2.9375 C-37.29804969 -10.57718829 -15.95046865 -10.62439912 0 0 Z " fill="#027260" transform="translate(550,691)"/>
<path d="M0 0 C7.46254227 5.89007801 11.36062934 14.59220922 13.1875 23.7265625 C13.1875 29.9965625 13.1875 36.2665625 13.1875 42.7265625 C-6.6125 42.7265625 -26.4125 42.7265625 -46.8125 42.7265625 C-44.07903278 51.83811991 -42.42269713 56.32379795 -35.1875 61.6640625 C-28.69822033 63.70698388 -21.63445232 63.96093209 -15.375 61.0390625 C-12.72514322 59.52330081 -11.37363622 58.24488274 -9.25 55.9140625 C-6.8125 53.7265625 -6.8125 53.7265625 -3.75 53.6015625 C1.78712531 54.84433951 7.02466833 57.4291448 12.1875 59.7265625 C6.92998656 70.03128884 -0.0746108 75.41210895 -10.8125 79.7265625 C-22.56553804 83.45400552 -34.53310174 82.53022583 -45.8125 77.7265625 C-57.17676688 71.45716946 -63.84289793 63.02904825 -67.8125 50.7265625 C-70.77266159 36.92504477 -69.56333882 22.97890593 -62 10.9140625 C-47.46505232 -9.0669822 -20.88217311 -13.58679853 0 0 Z " fill="#027260" transform="translate(647.8125,723.2734375)"/>
<path d="M0 0 C1.21631586 1.02938731 2.40573534 2.09161769 3.5625 3.1875 C4.11550781 3.70054687 4.66851563 4.21359375 5.23828125 4.7421875 C13.56377414 13.37756226 14.66296052 25.20029418 14.6953125 36.63671875 C14.5625 39.1875 14.5625 39.1875 13.5625 43.1875 C-6.2375 43.1875 -26.0375 43.1875 -46.4375 43.1875 C-42.38190666 56.13604605 -42.38190666 56.13604605 -32.4375 63.1875 C-26.76998594 65.26558849 -20.96977014 64.50082762 -15.48046875 62.32421875 C-12.33223963 60.57252722 -9.95748642 58.11847278 -7.4921875 55.515625 C-5.4375 54.1875 -5.4375 54.1875 -2.59375 54.32421875 C0.72768874 55.23268157 3.77848419 56.38109315 6.9375 57.75 C7.99710938 58.20503906 9.05671875 58.66007813 10.1484375 59.12890625 C10.94507813 59.47824219 11.74171875 59.82757812 12.5625 60.1875 C9.20943717 69.48902526 2.26449026 74.95516837 -6.4375 79.1875 C-16.54758871 83.80676467 -29.40561275 83.78132488 -39.9375 80.5625 C-51.03767717 76.21961263 -59.39427394 69.13208963 -64.61328125 58.33984375 C-68.98493682 46.92381427 -69.79488489 31.4609758 -65.8125 19.8125 C-64.6953125 17.3984375 -64.6953125 17.3984375 -63.4375 15.1875 C-63.00179687 14.39601563 -62.56609375 13.60453125 -62.1171875 12.7890625 C-56.4479308 3.46421952 -47.78896648 -3.58638754 -37.13671875 -6.42578125 C-24.45314192 -8.24296519 -10.77387628 -7.58236953 0 0 Z " fill="#027260" transform="translate(742.4375,722.8125)"/>
<path d="M0 0 C7.59 0 15.18 0 23 0 C23.33 23.1 23.66 46.2 24 70 C30.41853648 63.65218104 30.41853648 63.65218104 36.125 56.9375 C36.89070312 56.02226563 37.65640625 55.10703125 38.4453125 54.1640625 C40.36947409 51.84512383 42.08858724 49.43690883 43.8046875 46.9609375 C51.38120122 36.77865616 51.38120122 36.77865616 58.07714844 35.33789062 C65.4169517 34.70664636 72.69323789 35.16088421 80 36 C79.61618164 36.4444043 79.23236328 36.88880859 78.83691406 37.34667969 C75.74739088 40.93544217 72.71679485 44.5584919 69.75 48.25 C66.57074213 52.15716876 63.28851944 55.92096826 59.875 59.625 C55.63951543 64.22447152 51.73659152 68.98900807 48 74 C49.79242132 78.14757958 52.53520068 81.55170053 55.25 85.125 C55.77215088 85.817146 56.29430176 86.50929199 56.83227539 87.22241211 C61.55538452 93.46209675 66.35815975 99.63998664 71.19042969 105.79541016 C81 118.32099456 81 118.32099456 81 120 C58.55373511 122.68373974 58.55373511 122.68373974 51.52441406 118.54101562 C47.33287948 114.7152659 44.37230529 110.07500495 41.43798828 105.25341797 C39.25907012 101.83891633 36.62840823 98.89046953 33.9375 95.875 C30.33180784 91.68595241 27.24211001 87.53895401 24 83 C23.67 95.54 23.34 108.08 23 121 C15.41 121 7.82 121 0 121 C0 81.07 0 41.14 0 0 Z " fill="#017361" transform="translate(772,682)"/>
<path d="M0 0 C9.9 0 19.8 0 30 0 C30.04530093 10.77952942 30.08194495 21.55899493 30.10362434 32.33859825 C30.11403273 37.3447462 30.12813784 42.35082527 30.15087891 47.35693359 C30.17271269 52.19394222 30.18459075 57.03088487 30.18975449 61.867939 C30.1934314 63.70738386 30.20061121 65.54682537 30.21146011 67.38624191 C30.30654286 84.18535236 29.50126949 100.31700131 17.0859375 113.1015625 C7.34488204 121.96701747 -5.10214041 124.96279809 -18.07421875 124.37890625 C-29.34872775 123.29071981 -40.21602452 119.08058961 -48.1328125 110.7578125 C-56 100.98143305 -56 100.98143305 -56 96 C-45.605 91.05 -45.605 91.05 -35 86 C-32.8124008 88.1875992 -30.6336086 90.38471097 -28.5 92.625 C-23.58895098 97.29049657 -19.53563338 97.44146789 -12.91796875 97.3125 C-8.94324717 96.88682701 -6.85616932 95.78293421 -4 93 C-0.88651595 88.00653478 -0.55730057 84.03105413 -0.56762695 78.33251953 C-0.5574353 77.48308273 -0.54724365 76.63364594 -0.53674316 75.75846863 C-0.50668454 72.96651553 -0.49735816 70.17490595 -0.48828125 67.3828125 C-0.47142928 65.44081488 -0.45327833 63.49882814 -0.43388367 61.55685425 C-0.38643392 56.45730995 -0.356592 51.35780976 -0.33044434 46.25811768 C-0.30061351 41.04959405 -0.25409181 35.84122226 -0.20898438 30.6328125 C-0.12300825 20.42193707 -0.05718102 10.21107733 0 0 Z " fill="#037461" transform="translate(376,363)"/>
<path d="M0 0 C7.59 0 15.18 0 23 0 C23.04530093 10.77952942 23.08194495 21.55899493 23.10362434 32.33859825 C23.11403273 37.3447462 23.12813784 42.35082527 23.15087891 47.35693359 C23.17271269 52.19394222 23.18459075 57.03088487 23.18975449 61.867939 C23.1934314 63.70738386 23.20061121 65.54682537 23.21146011 67.38624191 C23.29897692 82.84861068 23.1076917 97.29879719 11.90234375 109.21484375 C2.90855135 117.65460376 -8.48707579 119.68126215 -20.546875 119.3359375 C-31.47213445 118.27307289 -38.60773231 113.99543185 -46 106 C-51.5377507 99.18430683 -53 92.65126753 -53 84 C-45.74 83.01 -38.48 82.02 -31 81 C-30.34 83.97 -29.68 86.94 -29 90 C-26.08486357 94.16737034 -26.08486357 94.16737034 -22 97 C-17.12304083 97.40837661 -12.55725515 97.64885631 -8 95.75 C-3.03272992 91.40363868 -1.42717535 86.45897488 -0.80466843 79.96107483 C-0.71752883 77.8270082 -0.6874041 75.70028031 -0.68115234 73.56445312 C-0.66608391 72.36301163 -0.66608391 72.36301163 -0.65071106 71.13729858 C-0.62008978 68.5186223 -0.60290313 65.90004724 -0.5859375 63.28125 C-0.56720887 61.4542149 -0.54763421 59.6271883 -0.5272522 57.8001709 C-0.47610404 53.01303128 -0.43638603 48.22586368 -0.39910889 43.43859863 C-0.35896022 38.54493382 -0.30791762 33.6513837 -0.2578125 28.7578125 C-0.16125837 19.17194788 -0.07779641 9.58603522 0 0 Z " fill="#017260" transform="translate(236,686)"/>
<path d="M0 0 C6.46391203 5.21232122 9.81500192 11.22822676 10.875 19.47265625 C11.21640263 27.43871751 9.50794527 35.43243106 4.46875 41.72265625 C-0.38814769 46.70225451 -5.52234991 48.87317052 -12.34375 49.84765625 C-18.67565753 49.48040561 -25.0960654 46.14255047 -29.34375 41.47265625 C-34.96633812 32.78320188 -35.46021284 24.36304858 -34.40625 14.28515625 C-32.41685289 7.38857959 -28.51926175 2.07443135 -22.40625 -1.71484375 C-15.13841263 -4.86881091 -6.68167836 -4.39667043 0 0 Z " fill="#F7F6F3" transform="translate(330.40625,737.71484375)"/>
<path d="M0 0 C6.42324525 3.7062257 9.78519409 10.63879201 11.6875 17.5625 C12.88998119 27.76046545 11.78658499 36.1329786 5.6875 44.5625 C0.99174538 49.16909472 -3.64950332 50.71475665 -10.125 50.8125 C-17.26998356 50.70944735 -21.02674391 49.10738956 -26 44 C-31.48407164 37.35116979 -32.928179 29.78852516 -32.6640625 21.30078125 C-31.72488678 13.98564589 -28.62399617 7.63256452 -23.3125 2.5625 C-16.43698103 -2.46071021 -7.87951912 -3.26932246 0 0 Z " fill="#F8F7F3" transform="translate(432.3125,735.4375)"/>
<path d="M0 0 C0 8.91 0 17.82 0 27 C-3.3 28.65 -6.6 30.3 -10 32 C-11.25425781 32.92296875 -12.50851562 33.8459375 -13.80078125 34.796875 C-15.74462891 35.76757812 -15.74462891 35.76757812 -18 36 C-22.82355923 34.07342347 -26.94668228 31.19591606 -31.1875 28.25 C-32.93035014 27.07155869 -34.67863526 25.90280225 -36.43562317 24.74554443 C-38.02682703 23.69266141 -39.60026722 22.61307747 -41.17260742 21.53222656 C-44.12697318 19.93119043 -45.70329779 19.64808997 -49 20 C-46.6577608 17.6577608 -46.10397172 17.77967447 -42.9375 17.4375 C-36.78304342 16.3346783 -31.88213795 13.45241927 -26.47705078 10.46630859 C-7.39242424 0 -7.39242424 0 0 0 Z " fill="#DE8212" transform="translate(729,534)"/>
<path d="M0 0 C3.20372563 2.40279423 5.30941761 4.49524432 7.5 7.875 C7.995 12.33 7.995 12.33 8.5 16.875 C-4.7 16.875 -17.9 16.875 -31.5 16.875 C-28.53418338 8.96615568 -26.47141496 4.87777717 -19.9375 -0.0625 C-13.43879508 -2.07119061 -6.47707515 -2.08191701 0 0 Z " fill="#F8F7F3" transform="translate(727.5,734.125)"/>
<path d="M0 0 C1.515625 0.9921875 1.515625 0.9921875 3.890625 3.2421875 C4.633125 3.8609375 5.375625 4.4796875 6.140625 5.1171875 C9.26435925 8.91029338 9.890625 12.40338894 9.890625 17.2421875 C-3.309375 17.2421875 -16.509375 17.2421875 -30.109375 17.2421875 C-26.72344749 7.08440498 -26.72344749 7.08440498 -23.671875 4.3046875 C-23.09566406 3.75941406 -22.51945313 3.21414063 -21.92578125 2.65234375 C-15.94936618 -1.98741075 -7.1036213 -2.55204173 0 0 Z " fill="#F7F7F4" transform="translate(631.109375,733.7578125)"/>
<path d="M0 0 C0.66 0 1.32 0 2 0 C2 39.27 2 78.54 2 119 C8.6 119 15.2 119 22 119 C22 107.12 22 95.24 22 83 C22.33 83 22.66 83 23 83 C23 95.54 23 108.08 23 121 C15.41 121 7.82 121 0 121 C0 81.07 0 41.14 0 0 Z " fill="#20715F" transform="translate(772,682)"/>
<path d="M0 0 C0.33 0 0.66 0 1 0 C1.33 3.96 1.66 7.92 2 12 C2.66 11.67 3.32 11.34 4 11 C4.46651207 8.87423218 4.46651207 8.87423218 4.625 6.4375 C4.69976562 5.61121094 4.77453125 4.78492188 4.8515625 3.93359375 C4.90054687 3.29550781 4.94953125 2.65742188 5 2 C5.66 2 6.32 2 7 2 C7.01417969 2.85722656 7.02835937 3.71445313 7.04296875 4.59765625 C7.35344794 12.04076537 7.94852142 16.43042105 13 22 C12.67 22.66 12.34 23.32 12 24 C10.02 21.69 8.04 19.38 6 17 C6 17.99 6 18.98 6 20 C3.66666667 20 1.33333333 20 -1 20 C-1.33 20.66 -1.66 21.32 -2 22 C-2 19.45523101 -1.83359148 17.07532068 -1.5625 14.55078125 C-1.47226562 13.70322266 -1.38203125 12.85566406 -1.2890625 11.98242188 C-1.19367188 11.10134766 -1.09828125 10.22027344 -1 9.3125 C-0.90460938 8.41982422 -0.80921875 7.52714844 -0.7109375 6.60742188 C-0.47536227 4.40479345 -0.23832976 2.20233179 0 0 Z " fill="#0C705E" transform="translate(262,252)"/>
<path d="M0 0 C0.66 0 1.32 0 2 0 C2.33 13.53 2.66 27.06 3 41 C3.99 40.505 3.99 40.505 5 40 C3.63016497 43.16115776 3.0109362 43.9927092 0 46 C0 30.82 0 15.64 0 0 Z " fill="#FDFDFC" transform="translate(795,707)"/>
<path d="M0 0 C0.33 0 0.66 0 1 0 C1.06058594 1.03640625 1.12117188 2.0728125 1.18359375 3.140625 C1.26803371 4.51042873 1.35267997 5.88021975 1.4375 7.25 C1.47681641 7.93191406 1.51613281 8.61382812 1.55664062 9.31640625 C1.73075825 12.07550091 1.8988426 14.65525095 2.6796875 17.31640625 C2.78539062 17.87199219 2.89109375 18.42757813 3 19 C0.8386373 21.51185394 -1.01962439 23.50981219 -4 25 C-4 24.34 -4 23.68 -4 23 C-7.52381687 25.54604597 -7.52381687 25.54604597 -10 29 C-10.66 28.67 -11.32 28.34 -12 28 C-11.45730469 27.32195312 -10.91460937 26.64390625 -10.35546875 25.9453125 C-3.96902454 17.63718147 -1.12237398 10.32584061 0 0 Z " fill="#106D5C" transform="translate(507,397)"/>
<path d="M0 0 C1.5631897 0.00785522 1.5631897 0.00785522 3.15795898 0.01586914 C4.28266602 0.0190918 5.40737305 0.02231445 6.56616211 0.02563477 C7.75016602 0.03401367 8.93416992 0.04239258 10.15405273 0.05102539 C11.34192383 0.05553711 12.52979492 0.06004883 13.75366211 0.06469727 C16.69967499 0.07652864 19.64558954 0.09301252 22.59155273 0.11352539 C21.63733465 1.26278805 20.67803229 2.4078308 19.71655273 3.55102539 C19.18288086 4.18911133 18.64920898 4.82719727 18.09936523 5.48461914 C16.59155273 7.11352539 16.59155273 7.11352539 14.59155273 8.11352539 C14.59155273 6.79352539 14.59155273 5.47352539 14.59155273 4.11352539 C15.58155273 3.78352539 16.57155273 3.45352539 17.59155273 3.11352539 C14.38417314 2.90884689 11.17848097 2.78547218 7.96655273 2.67602539 C7.06291992 2.61737305 6.15928711 2.5587207 5.22827148 2.49829102 C0.03815574 2.3170602 0.03815574 2.3170602 -4.39575195 4.70288086 C-5.88681959 6.44245977 -7.19477349 8.17233517 -8.40844727 10.11352539 C-9.06844727 9.78352539 -9.72844727 9.45352539 -10.40844727 9.11352539 C-9.26304501 7.80064918 -8.11711294 6.48823518 -6.97094727 5.17602539 C-6.33286133 4.44512695 -5.69477539 3.71422852 -5.03735352 2.96118164 C-2.53197373 0.11934798 -2.53197373 0.11934798 0 0 Z " fill="#055E4A" transform="translate(829.408447265625,717.886474609375)"/>
<path d="M0 0 C29.205 0.495 29.205 0.495 59 1 C59 1.33 59 1.66 59 2 C39.53 2.33 20.06 2.66 0 3 C0 2.01 0 1.02 0 0 Z " fill="#128172" transform="translate(600,764)"/>
<path d="M0 0 C0 3 0 3 -2.38671875 5.72729492 C-3.47931119 6.81941176 -4.5801754 7.90329204 -5.6875 8.98046875 C-6.26459717 9.55332108 -6.84169434 10.1261734 -7.4362793 10.71638489 C-9.28394376 12.54723565 -11.14175807 14.36739185 -13 16.1875 C-14.25328593 17.42574262 -15.50589901 18.66466668 -16.7578125 19.90429688 C-19.83078528 22.94416468 -22.91290242 25.97448016 -26 29 C-27 26 -27 26 -27 24 C-26.45182617 23.94078369 -25.90365234 23.88156738 -25.33886719 23.82055664 C-22.00639334 22.65140794 -19.98300051 20.35315158 -17.578125 17.87109375 C-17.07327576 17.36199966 -16.56842651 16.85290558 -16.04827881 16.3283844 C-14.44166021 14.7050088 -12.84580178 13.071503 -11.25 11.4375 C-10.16085016 10.3332995 -9.07101395 9.22977555 -7.98046875 8.12695312 C-5.3122924 5.4257471 -2.65371709 2.71540937 0 0 Z " fill="#F28208" transform="translate(579,363)"/>
<path d="M0 0 C0 3 0 3 -1.98779297 5.3125 C-2.89674316 6.199375 -3.80569336 7.08625 -4.7421875 8 C-5.22575714 8.47695313 -5.70932678 8.95390625 -6.20755005 9.4453125 C-7.75644977 10.97078233 -9.31512404 12.48576254 -10.875 14 C-12.42599747 15.51588962 -13.97482988 17.03390148 -15.52102661 18.5546875 C-16.92762831 19.93657512 -18.3403807 21.3121937 -19.75341797 22.6875 C-22.12066313 24.98391547 -22.12066313 24.98391547 -24 28 C-24.99 27.67 -25.98 27.34 -27 27 C-18.09 18.09 -9.18 9.18 0 0 Z " fill="#11604D" transform="translate(494,426)"/>
<path d="M0 0 C2.97 0.495 2.97 0.495 6 1 C5.67 4.96 5.34 8.92 5 13 C3.68 13.33 2.36 13.66 1 14 C0.67 9.38 0.34 4.76 0 0 Z " fill="#077E6C" transform="translate(262,251)"/>
<path d="M0 0 C2 2 2 2 2 7 C-10.21 7 -22.42 7 -35 7 C-35 6.67 -35 6.34 -35 6 C-17.675 5.505 -17.675 5.505 0 5 C0 3.35 0 1.7 0 0 Z " fill="#FCFDFC" transform="translate(734,744)"/>
<path d="M0 0 C1.98 0 3.96 0 6 0 C1.55618306 4.58716587 -3.20228499 8.78762713 -8 13 C-8.66 12.67 -9.32 12.34 -10 12 C-9.525625 11.443125 -9.05125 10.88625 -8.5625 10.3125 C-6.87056628 7.80843809 -6.5539583 5.92806531 -6 3 C-5.34 2.67 -4.68 2.34 -4 2 C-3.67 2.66 -3.34 3.32 -3 4 C-2.01 3.67 -1.02 3.34 0 3 C0 2.01 0 1.02 0 0 Z " fill="#F28A14" transform="translate(602,338)"/>
<path d="M0 0 C1 3 1 3 0.27490234 5.00537109 C-0.11745605 5.75383301 -0.50981445 6.50229492 -0.9140625 7.2734375 C-1.34589844 8.0984375 -1.77773438 8.9234375 -2.22265625 9.7734375 C-2.68542969 10.63195312 -3.14820313 11.49046875 -3.625 12.375 C-4.06457031 13.22578125 -4.50414062 14.0765625 -4.95703125 14.953125 C-7.48672335 19.71577112 -9.93898815 23.4374517 -14 27 C-12.49235993 20.46689304 -12.49235993 20.46689304 -10.1875 18.28125 C-7.18753574 15.15271585 -5.60356852 11.63562882 -3.75 7.75 C-3.20472656 6.63238281 -3.20472656 6.63238281 -2.6484375 5.4921875 C-1.75827855 3.66501913 -0.8781261 1.83298166 0 0 Z " fill="#F3850C" transform="translate(792,469)"/>
<path d="M0 0 C0.33 0.99 0.66 1.98 1 3 C1.99 2.67 2.98 2.34 4 2 C4.33 3.32 4.66 4.64 5 6 C3.35 7.32 1.7 8.64 0 10 C-0.33 9.01 -0.66 8.02 -1 7 C-1.66 8.98 -2.32 10.96 -3 13 C-3.93045933 10.44855176 -4.08564091 9.25993522 -3.22265625 6.640625 C-2.83980469 5.85171875 -2.45695313 5.0628125 -2.0625 4.25 C-1.68222656 3.45078125 -1.30195313 2.6515625 -0.91015625 1.828125 C-0.60980469 1.22484375 -0.30945313 0.6215625 0 0 Z " fill="#056C58" transform="translate(245,371)"/>
<path d="M0 0 C0.33 0.66 0.66 1.32 1 2 C1.99 2 2.98 2 4 2 C4.33 2.99 4.66 3.98 5 5 C2.525 6.485 2.525 6.485 0 8 C0 7.34 0 6.68 0 6 C-3.52381687 8.54604597 -3.52381687 8.54604597 -6 12 C-6.66 11.67 -7.32 11.34 -8 11 C-5.36 7.37 -2.72 3.74 0 0 Z " fill="#086A55" transform="translate(503,414)"/>
<path d="M0 0 C0.93585937 0.47566406 0.93585937 0.47566406 1.890625 0.9609375 C4.48758041 2.2401785 5.91588675 2.04178136 8.75 1.625 C9.94882812 1.45871094 9.94882812 1.45871094 11.171875 1.2890625 C11.77515625 1.19367188 12.3784375 1.09828125 13 1 C9.46211314 2.95958144 5.81219399 4.0589088 1.9375 5.1875 C0.70902344 5.55230469 -0.51945313 5.91710937 -1.78515625 6.29296875 C-5 7 -5 7 -8 6 C-6.35 5.34 -4.7 4.68 -3 4 C-3 3.01 -3 2.02 -3 1 C-2.01 0.67 -1.02 0.34 0 0 Z " fill="#F38A11" transform="translate(633,322)"/>
<path d="M0 0 C0.33 0.66 0.66 1.32 1 2 C0.67 2.66 0.34 3.32 0 4 C2.31 4.33 4.62 4.66 7 5 C7 5.66 7 6.32 7 7 C5.35 6.67 3.7 6.34 2 6 C2 7.32 2 8.64 2 10 C1.67 10.66 1.34 11.32 1 12 C-2.875 9.25 -2.875 9.25 -4 7 C-3.22265625 5.2734375 -3.22265625 5.2734375 -2.0625 3.375 C-1.381875 2.26125 -0.70125 1.1475 0 0 Z " fill="#F08C14" transform="translate(752,456)"/>
<path d="M0 0 C2.92042535 1.26231661 5.83560306 2.53633386 8.75 3.8125 C9.575 4.16892578 10.4 4.52535156 11.25 4.89257812 C12.04921875 5.24384766 12.8484375 5.59511719 13.671875 5.95703125 C14.77160645 6.43619995 14.77160645 6.43619995 15.89355469 6.92504883 C18.14050866 8.07170371 20.02703147 9.43449236 22 11 C18.57616761 10.34959456 15.2273483 9.57842016 11.875 8.625 C10.60269531 8.27308594 10.60269531 8.27308594 9.3046875 7.9140625 C6.85863064 6.94393147 5.74227318 5.92620818 4 4 C1.90010348 2.82425289 1.90010348 2.82425289 0 2 C0 1.34 0 0.68 0 0 Z " fill="#08624E" transform="translate(392,195)"/>
<path d="M0 0 C1.19935725 3.47651527 0.80128318 5.69868278 -0.25 9.1875 C-0.50265625 10.06792969 -0.7553125 10.94835937 -1.015625 11.85546875 C-1.34046875 12.56316406 -1.6653125 13.27085937 -2 14 C-2.99 14.33 -3.98 14.66 -5 15 C-6.66710346 16.49985609 -6.66710346 16.49985609 -8 18 C-8.66 16.68 -9.32 15.36 -10 14 C-8.906875 13.54625 -7.81375 13.0925 -6.6875 12.625 C-3.08149627 10.62490886 -2.20427199 8.66306323 -1.0625 4.75 C-0.68187924 3.17281697 -0.31877452 1.59083666 0 0 Z " fill="#F28B13" transform="translate(800,445)"/>
<path d="M0 0 C3.90285767 1.58667578 6.33520982 4.13350481 9.25 7.125 C10.14203125 8.03507812 11.0340625 8.94515625 11.953125 9.8828125 C12.62859375 10.58148438 13.3040625 11.28015625 14 12 C13.34 12.66 12.68 13.32 12 14 C9.99387601 12.04761147 7.99507567 10.08862178 6 8.125 C5.42765625 7.56941406 4.8553125 7.01382812 4.265625 6.44140625 C2.80549218 4.99865596 1.39850702 3.5025626 0 2 C0 1.34 0 0.68 0 0 Z " fill="#207260" transform="translate(455,379)"/>
<path d="M0 0 C2.55227651 3.07150755 3.88776704 5.98525624 5.1875 9.75 C5.53167969 10.73484375 5.87585938 11.7196875 6.23046875 12.734375 C6.61138672 13.85585938 6.61138672 13.85585938 7 15 C4.69 14.67 2.38 14.34 0 14 C0.185625 12.989375 0.37125 11.97875 0.5625 10.9375 C0.99768247 7.02085773 0.70853021 3.85755337 0 0 Z " fill="#0A7369" transform="translate(513,424)"/>
<path d="M0 0 C0.66 0.66 1.32 1.32 2 2 C-1.32916039 3.34394384 -4.6636501 4.67401478 -8 6 C-8.76054688 6.30808594 -9.52109375 6.61617188 -10.3046875 6.93359375 C-13.79885123 8.31148096 -16.19048065 9 -20 9 C-19.25390625 7.0390625 -19.25390625 7.0390625 -18 5 C-16.15234375 4.4609375 -16.15234375 4.4609375 -13.9375 4.375 C-9.14534138 4.05604139 -4.65922021 3.13451461 0 2 C0 1.34 0 0.68 0 0 Z " fill="#0A614B" transform="translate(705,387)"/>
<path d="M0 0 C2.375 -0.1875 2.375 -0.1875 5 0 C7 3 7 3 7 6 C5.37581255 6.08090971 3.75048255 6.13914995 2.125 6.1875 C1.22007812 6.22230469 0.31515625 6.25710938 -0.6171875 6.29296875 C-1.79667969 6.14794922 -1.79667969 6.14794922 -3 6 C-3.66 5.01 -4.32 4.02 -5 3 C-3.02 2.67 -1.04 2.34 1 2 C0.67 1.34 0.34 0.68 0 0 Z " fill="#F59C28" transform="translate(794,649)"/>
<path d="M0 0 C1.32 0.33 2.64 0.66 4 1 C2.4169423 5.2742558 -0.50568404 7.26531794 -4 10 C-5.125 6.25 -5.125 6.25 -4 4 C-3.01 4 -2.02 4 -1 4 C-0.67 2.68 -0.34 1.36 0 0 Z " fill="#016855" transform="translate(493,484)"/>
<path d="M0 0 C0.33 0 0.66 0 1 0 C1.33 3.96 1.66 7.92 2 12 C2.66 11.67 3.32 11.34 4 11 C4.33 12.65 4.66 14.3 5 16 C4.34 16.33 3.68 16.66 3 17 C3 16.34 3 15.68 3 15 C1.68 15.33 0.36 15.66 -1 16 C-0.67 10.72 -0.34 5.44 0 0 Z " fill="#056550" transform="translate(262,252)"/>
<path d="M0 0 C0.99 0.66 1.98 1.32 3 2 C1.46356148 5.68069887 -0.78150945 7.98775204 -3.625 10.75 C-4.85089844 11.94882812 -4.85089844 11.94882812 -6.1015625 13.171875 C-6.72804688 13.77515625 -7.35453125 14.3784375 -8 15 C-8 14.01 -8 13.02 -8 12 C-7.236875 11.2575 -6.47375 10.515 -5.6875 9.75 C-2.570465 6.56047582 -1.53834879 4.12925203 0 0 Z " fill="#076551" transform="translate(481,497)"/>
<path d="M0 0 C0.90105469 0.11085938 1.80210937 0.22171875 2.73046875 0.3359375 C3.76107422 0.47902344 3.76107422 0.47902344 4.8125 0.625 C4.8125 1.285 4.8125 1.945 4.8125 2.625 C1.78812661 4.1371867 -0.84991534 3.79763369 -4.1875 3.625 C-6.625 2.625 -6.625 2.625 -8.1875 1.625 C-4.73535147 -0.67643236 -3.95270676 -0.51333854 0 0 Z " fill="#E5F0EC" transform="translate(718.1875,784.375)"/>
<path d="M0 0 C0.33 1.32 0.66 2.64 1 4 C-0.65 4.33 -2.3 4.66 -4 5 C-4 5.66 -4 6.32 -4 7 C-4.886875 7.144375 -5.77375 7.28875 -6.6875 7.4375 C-9.47117646 7.91019978 -12.23483757 8.43070185 -15 9 C-13.39263752 5.78527503 -10.059072 4.8762839 -6.9375 3.375 C-6.27427734 3.05015625 -5.61105469 2.7253125 -4.92773438 2.390625 C-3.28778753 1.58834885 -1.64422508 0.7934712 0 0 Z " fill="#08624C" transform="translate(417,501)"/>
<path d="M0 0 C2.64 0.99 5.28 1.98 8 3 C4 4 4 4 2 3 C1.67 7.29 1.34 11.58 1 16 C0.67 16 0.34 16 0 16 C0 10.72 0 5.44 0 0 Z " fill="#0F6F5E" transform="translate(296,272)"/>
<path d="M0 0 C5.78461538 4.30769231 5.78461538 4.30769231 6.875 7.8125 C6.936875 8.8953125 6.936875 8.8953125 7 10 C5.68 10.33 4.36 10.66 3 11 C2.01 9.68 1.02 8.36 0 7 C0.99 6.67 1.98 6.34 3 6 C2.2575 5.071875 2.2575 5.071875 1.5 4.125 C0 2 0 2 0 0 Z " fill="#F18D13" transform="translate(552,431)"/>
<path d="M0 0 C0.33 0 0.66 0 1 0 C1 2.97 1 5.94 1 9 C2.98 8.67 4.96 8.34 7 8 C7 9.32 7 10.64 7 12 C5.35 12.66 3.7 13.32 2 14 C0.09391902 10.78817851 -0.22266247 8.46117397 -0.125 4.75 C-0.09792969 3.41195313 -0.09792969 3.41195313 -0.0703125 2.046875 C-0.04710937 1.37140625 -0.02390625 0.6959375 0 0 Z " fill="#F59114" transform="translate(508,393)"/>
<path d="M0 0 C0.33 1.32 0.66 2.64 1 4 C-2.13498292 5.85776765 -4.37471432 6.20140476 -8 6 C-3.375 0 -3.375 0 0 0 Z " fill="#046A57" transform="translate(431,492)"/>
<path d="M0 0 C2.0625 0.4375 2.0625 0.4375 4 1 C3.7525 1.680625 3.505 2.36125 3.25 3.0625 C2.97263482 6.32154089 3.35817303 6.99985173 5 9.6875 C5.99 11.3271875 5.99 11.3271875 7 13 C6.67 13.66 6.34 14.32 6 15 C2.98320986 10.46330032 0.46032495 6.31027254 -1 1 C-0.67 0.67 -0.34 0.34 0 0 Z " fill="#095F49" transform="translate(614,454)"/>
<path d="M0 0 C0.66 0 1.32 0 2 0 C2.061875 1.258125 2.12375 2.51625 2.1875 3.8125 C2.38520288 6.00337977 2.38520288 6.00337977 3 8 C5.40743101 10.06454002 5.40743101 10.06454002 8 11 C7.67 11.99 7.34 12.98 7 14 C1.33615222 10.26427061 1.33615222 10.26427061 0.37890625 6.6640625 C0.15007416 4.43206945 0.00977395 2.24312155 0 0 Z " fill="#EAF6F2" transform="translate(644,390)"/>
<path d="M0 0 C-4.77357872 2.71391278 -8.34388537 4.56561146 -14 4 C-13.34 3.67 -12.68 3.34 -12 3 C-12 2.34 -12 1.68 -12 1 C-10.37681021 0.63762737 -8.7513642 0.28534843 -7.125 -0.0625 C-6.22007812 -0.25972656 -5.31515625 -0.45695313 -4.3828125 -0.66015625 C-2 -1 -2 -1 0 0 Z " fill="#E5F1EE" transform="translate(639,803)"/>
<path d="M0 0 C1.04449911 3.13349732 0.93423645 3.98968256 0 7 C-1.32 7 -2.64 7 -4 7 C-4.33 5.35 -4.66 3.7 -5 2 C-3.35 1.34 -1.7 0.68 0 0 Z " fill="#0B6D5B" transform="translate(325,457)"/>
<path d="M0 0 C0 0.99 0 1.98 0 3 C-1.43294498 3.84114171 -2.87154405 4.67265687 -4.3125 5.5 C-5.51326172 6.19609375 -5.51326172 6.19609375 -6.73828125 6.90625 C-9 8 -9 8 -12 8 C-12 7.34 -12 6.68 -12 6 C-8.04 4.02 -4.08 2.04 0 0 Z " fill="#156E5B" transform="translate(347,190)"/>
<path d="M0 0 C0.99 0.99 1.98 1.98 3 3 C-3.93 3 -10.86 3 -18 3 C-18 2.67 -18 2.34 -18 2 C-13.48497564 1.41471906 -9.05810192 0.93394055 -4.5 1 C-3.345 1 -2.19 1 -1 1 C-0.67 0.67 -0.34 0.34 0 0 Z " fill="#037D6B" transform="translate(848,798)"/>
<path d="M0 0 C1.125 3.75 1.125 3.75 0 6 C0.66 6 1.32 6 2 6 C1.67 7.65 1.34 9.3 1 11 C0.01 11 -0.98 11 -2 11 C-1.85957123 9.35369672 -1.71250671 7.70795821 -1.5625 6.0625 C-1.48128906 5.14597656 -1.40007812 4.22945313 -1.31640625 3.28515625 C-1 1 -1 1 0 0 Z " fill="#056B58" transform="translate(255,297)"/>
<path d="M0 0 C1.77119803 0.14133499 3.54195287 0.28823208 5.3125 0.4375 C6.29863281 0.51871094 7.28476562 0.59992188 8.30078125 0.68359375 C11 1 11 1 14 2 C14 2.66 14 3.32 14 4 C7.375 4.25 7.375 4.25 4 2 C2.67432801 1.31822584 1.34246312 0.64808564 0 0 Z " fill="#F69C28" transform="translate(650,276)"/>
<path d="M0 0 C2.97 0.33 5.94 0.66 9 1 C9.33 1.99 9.66 2.98 10 4 C8.5629191 4.05422947 7.12524538 4.09289723 5.6875 4.125 C4.88699219 4.14820313 4.08648438 4.17140625 3.26171875 4.1953125 C1 4 1 4 -2 2 C-1.34 2 -0.68 2 0 2 C0 1.34 0 0.68 0 0 Z " fill="#1F8979" transform="translate(616,729)"/>
<path d="M0 0 C-1.98 4.455 -1.98 4.455 -4 9 C-4.33 9 -4.66 9 -5 9 C-5.33 6.03 -5.66 3.06 -6 0 C-2 -1 -2 -1 0 0 Z " fill="#F9EFDF" transform="translate(537,430)"/>
<path d="M0 0 C3.63 0.66 7.26 1.32 11 2 C11 2.66 11 3.32 11 4 C11.66 4 12.32 4 13 4 C13 4.66 13 5.32 13 6 C11.58208592 5.54554036 10.16571954 5.08625056 8.75 4.625 C7.96109375 4.36976563 7.1721875 4.11453125 6.359375 3.8515625 C4.13372042 3.04826333 2.09068328 2.10288338 0 1 C0 0.67 0 0.34 0 0 Z " fill="#0D6854" transform="translate(298,263)"/>
<path d="M0 0 C2.31 0.66 4.62 1.32 7 2 C3.25 3.125 3.25 3.125 1 2 C0.34 3.65 -0.32 5.3 -1 7 C-1.66 7 -2.32 7 -3 7 C-2.67 5.35 -2.34 3.7 -2 2 C-1.34 2 -0.68 2 0 2 C0 1.34 0 0.68 0 0 Z " fill="#056D5B" transform="translate(448,221)"/>
<path d="M0 0 C0.66 0.99 1.32 1.98 2 3 C0.71034824 4.37562854 -0.62689293 5.70766393 -2 7 C-2.66 7 -3.32 7 -4 7 C-2.79618552 4.50638429 -1.54571278 2.31856917 0 0 Z M-8 9 C-7.34 9.33 -6.68 9.66 -6 10 C-6.99 10 -7.98 10 -9 10 C-8.67 9.67 -8.34 9.34 -8 9 Z " fill="#E7F2EF" transform="translate(460,786)"/>
<path d="M0 0 C0.66 0 1.32 0 2 0 C2.50559908 1.43554025 3.0042749 2.8735202 3.5 4.3125 C3.7784375 5.11300781 4.056875 5.91351562 4.34375 6.73828125 C5 9 5 9 5 12 C4.34 12 3.68 12 3 12 C2.49166409 10.75336669 1.99368855 9.50250613 1.5 8.25 C1.2215625 7.55390625 0.943125 6.8578125 0.65625 6.140625 C0 4 0 4 0 0 Z " fill="#E5F2EF" transform="translate(696,766)"/>
<path d="M0 0 C0 3 0 3 -2 5.1875 C-2.66 5.785625 -3.32 6.38375 -4 7 C-4.99 6.34 -5.98 5.68 -7 5 C-4.63707344 2.47411298 -3.33537489 1.11179163 0 0 Z " fill="#006B57" transform="translate(452,471)"/>
<path d="M0 0 C0.66 0.33 1.32 0.66 2 1 C-1.0684847 3.97550031 -2.46236331 4.96474513 -6.8125 5.25 C-7.864375 5.1675 -8.91625 5.085 -10 5 C-6.76527494 2.84351662 -3.62848922 1.38542316 0 0 Z " fill="#E7F3F0" transform="translate(442,258)"/>
<path d="M0 0 C0.66 0.66 1.32 1.32 2 2 C-2.62921525 3.0161692 -6.34462607 2.83796731 -11 2 C-11 1.67 -11 1.34 -11 1 C-7.26779887 0.12183503 -3.83453269 -0.25563551 0 0 Z " fill="#F9F2E6" transform="translate(688,508)"/>
<path d="M0 0 C1.1446875 0.2784375 1.1446875 0.2784375 2.3125 0.5625 C5.08967375 1.22819173 5.08967375 1.22819173 8 0 C8.33 0.66 8.66 1.32 9 2 C6.69 2.66 4.38 3.32 2 4 C1.34 3.34 0.68 2.68 0 2 C0 1.34 0 0.68 0 0 Z " fill="#ECF3F0" transform="translate(388,284)"/>
<path d="M0 0 C0.33 0 0.66 0 1 0 C1 2.97 1 5.94 1 9 C0.01 8.67 -0.98 8.34 -2 8 C-2.20086443 4.28400809 -2.1519437 3.22791555 0 0 Z " fill="#EBF4F1" transform="translate(540,766)"/>
<path d="M0 0 C1.48199902 0.44909061 2.96055236 0.90956564 4.4375 1.375 C5.26121094 1.63023437 6.08492188 1.88546875 6.93359375 2.1484375 C9 3 9 3 10 5 C3.375 4.25 3.375 4.25 0 2 C0 1.34 0 0.68 0 0 Z " fill="#E9F6F4" transform="translate(348,456)"/>
<path d="M0 0 C0.99 0 1.98 0 3 0 C2.34 1.98 1.68 3.96 1 6 C0.01 6 -0.98 6 -2 6 C-1.34 4.02 -0.68 2.04 0 0 Z " fill="#0A6C58" transform="translate(492,402)"/>
<path d="M0 0 C2.97 0 5.94 0 9 0 C9 0.66 9 1.32 9 2 C9.66 2.33 10.32 2.66 11 3 C9.54077307 2.88590407 8.08259402 2.75834456 6.625 2.625 C5.40683594 2.52058594 5.40683594 2.52058594 4.1640625 2.4140625 C2 2 2 2 0 0 Z " fill="#F38A16" transform="translate(683,323)"/>
<path d="M0 0 C1.46726798 3.81489674 0.43336419 6.29011622 -1 10 C-1.66 9.34 -2.32 8.68 -3 8 C-3 7.01 -3 6.02 -3 5 C-2.34 5 -1.68 5 -1 5 C-0.67 3.35 -0.34 1.7 0 0 Z " fill="#F58B0F" transform="translate(522,430)"/>
<path d="M0 0 C0 3.20395416 -0.74335022 5.09399739 -2 8 C-4.35953094 5.64046906 -4.49141413 4.22104383 -5 1 C-3.35 0.67 -1.7 0.34 0 0 Z " fill="#F18A12" transform="translate(759,382)"/>
<path d="M0 0 C5.57142857 5.14285714 5.57142857 5.14285714 6 9 C0.42857143 3.85714286 0.42857143 3.85714286 0 0 Z " fill="#E6F2EF" transform="translate(818,792)"/>
<path d="M0 0 C1.64826111 2.96687001 2.44271087 5.65626525 3 9 C2.01 9 1.02 9 0 9 C-1.125 2.25 -1.125 2.25 0 0 Z " fill="#E2F1ED" transform="translate(675,772)"/>
<path d="M0 0 C0 1.32 0 2.64 0 4 C-2.31 3.34 -4.62 2.68 -7 2 C-7 1.67 -7 1.34 -7 1 C-2.25 0 -2.25 0 0 0 Z " fill="#086855" transform="translate(510,747)"/>
<path d="M0 0 C0 2.64779693 -0.17195931 4.51587793 -1 7 C-1.99 7.495 -1.99 7.495 -3 8 C-3.75 6.25 -3.75 6.25 -4 4 C-2.0625 1.75 -2.0625 1.75 0 0 Z " fill="#056854" transform="translate(591,728)"/>
<path d="M0 0 C3.3 0.99 6.6 1.98 10 3 C10 3.33 10 3.66 10 4 C3.375 4.25 3.375 4.25 0 2 C0 1.34 0 0.68 0 0 Z " fill="#E4F2EF" transform="translate(318,548)"/>
<path d="M0 0 C1.32 1.32 2.64 2.64 4 4 C1 5 1 5 -1.1875 4.0625 C-1.785625 3.711875 -2.38375 3.36125 -3 3 C-2.01 2.01 -1.02 1.02 0 0 Z " fill="#F18C15" transform="translate(563,443)"/>
<path d="M0 0 C2.52259061 1.97420135 2.9929808 2.96745642 3.6875 6.1875 C3.790625 7.115625 3.89375 8.04375 4 9 C3.67 8.34 3.34 7.68 3 7 C2.34 7 1.68 7 1 7 C0.67 4.69 0.34 2.38 0 0 Z " fill="#07644D" transform="translate(703,431)"/>
</svg>
